<?xml version="1.0" encoding="UTF-8"?>
<svg version="1.1" xmlns="http://www.w3.org/2000/svg" width="1000" height="1000">
<path d="M0 0 C6.49943514 0.01521434 12.99866158 0.01281097 19.49809787 -0.00099574 C20.43381482 -0.00295228 21.36953177 -0.00490883 22.33360378 -0.00692466 C24.23639844 -0.01094808 26.13919304 -0.01499742 28.04198759 -0.01907237 C45.77082267 -0.05484396 63.49924963 -0.03458543 81.22805481 0.00469916 C97.32107169 0.03879058 113.41316985 0.00796088 129.50607684 -0.05467714 C146.16851491 -0.11903338 162.8305345 -0.14160278 179.49308977 -0.11978327 C181.39077551 -0.11742046 183.28846131 -0.11511683 185.18614719 -0.11287318 C186.58548252 -0.1112126 186.58548252 -0.1112126 188.01308724 -0.10951847 C194.47230294 -0.10440491 200.93111169 -0.12521548 207.39024112 -0.15689479 C308.4736904 -0.61953873 308.4736904 -0.61953873 342.01120136 22.28122319 C342.6694289 22.7222437 343.32765644 23.16326421 344.00583027 23.61764897 C352.70612493 29.48041851 360.88722318 35.67527479 368.38620136 43.03122319 C369.27505024 43.88575078 369.27505024 43.88575078 370.18185566 44.75754155 C377.10413722 51.79687792 382.45612342 60.16211849 388.01120136 68.28122319 C388.5401601 69.05335149 389.06911884 69.82547978 389.61410663 70.62100591 C393.58477805 76.42789822 397.52050279 82.25804477 401.44870136 88.09372319 C402.06161029 89.00310643 402.67451923 89.91248967 403.30600116 90.84942998 C413.20645061 105.54343133 423.01321156 120.29819479 432.76120136 135.09372319 C433.66852512 136.47063832 433.66852512 136.47063832 434.59417865 137.87536992 C437.4166482 142.1610421 440.23301784 146.45044994 443.03659198 150.74850835 C444.88023501 153.57209446 446.74931051 156.37358899 448.65768573 159.15378179 C449.06206867 159.7538152 449.4664516 160.35384862 449.88308857 160.97206487 C450.91915403 162.50829081 451.96880441 164.03533316 453.01999042 165.56125249 C468.7380716 192.27914033 470.38898614 228.23298752 470.23170052 258.2687024 C470.2171658 262.97538568 470.25532639 267.68174154 470.28575275 272.38830937 C470.33669594 281.55352773 470.33996763 290.71812368 470.32411404 299.8834465 C470.31186203 307.35547486 470.31646752 314.8273229 470.33235881 322.299343 C470.33572671 323.91020435 470.33572671 323.91020435 470.33916265 325.55360836 C470.34375835 327.73712154 470.3483734 329.92063468 470.35300756 332.10414778 C470.39396181 352.47023456 470.37802978 372.83597335 470.34345192 393.20205174 C470.31370949 411.70573613 470.35242058 430.20851816 470.42425449 448.71206348 C470.49797074 467.84923069 470.52611758 486.98598094 470.50629631 506.12328686 C470.49593461 516.81212913 470.50205682 527.50027387 470.5550494 538.1890067 C471.06787897 648.37333522 471.06787897 648.37333522 454.01120136 669.28122319 C453.59096698 670.48262944 453.17073261 671.68403569 452.73776386 672.92184819 C450.8459718 678.22671776 447.66709269 682.49731939 444.38620136 687.03122319 C443.75738056 687.91012212 443.12855976 688.78902104 442.48068378 689.69455327 C441.22951367 691.438808 439.97433381 693.18019472 438.71481464 694.91843022 C437.2793748 696.9092853 435.8706732 698.91409927 434.47604511 700.93356694 C425.93606568 712.97633286 413.95572296 720.6163103 401.97409198 728.90427007 C400.71113375 729.79022585 399.45872302 730.69151518 398.22018573 731.61130132 C391.00769843 736.96144762 383.61821339 739.96689485 374.95955799 742.24337567 C373.50679807 742.62899225 373.50679807 742.62899225 372.02468947 743.02239907 C344.62822013 750.15284602 319.00133405 753.05412006 290.76473901 752.82060112 C285.2158962 752.7884602 279.66739321 752.82750242 274.11859272 752.85620488 C263.32922211 752.90119029 252.54090622 752.88333275 241.75155989 752.84120315 C232.96585393 752.80827116 224.18043058 752.80032346 215.39466999 752.80913533 C214.13135395 752.81039668 212.86803792 752.81165803 211.56643958 752.81295761 C208.99798293 752.81565041 206.42952634 752.81840959 203.86106984 752.82123432 C180.61558907 752.84427468 157.3707059 752.80179178 134.12538615 752.72948866 C113.02363555 752.66424429 91.92258175 752.65525089 70.82077167 752.69479741 C65.40787183 752.7048879 59.99497192 752.71489849 54.58207081 752.72428311 C53.58164409 752.72601766 53.58164409 752.72601766 52.56100674 752.72778724 C34.78153167 752.75767903 17.00209434 752.74066735 -0.77737334 752.71015216 C-3.33251331 752.7058274 -5.88765333 752.7015292 -8.44279339 752.69725789 C-9.69915304 752.69512516 -10.95551269 752.69299243 -12.24994384 752.69079507 C-21.00532547 752.67798115 -29.76051614 752.6872478 -38.51588299 752.7053069 C-49.21350297 752.72660465 -59.91036241 752.71066461 -70.6078442 752.65039533 C-76.0414963 752.62060204 -81.47395973 752.60518487 -86.90764096 752.63477696 C-119.75688506 752.79665682 -158.05392972 751.15339592 -186.61379864 732.78122319 C-187.28475567 732.35542974 -187.9557127 731.92963628 -188.64700177 731.49093999 C-196.39399783 726.49412753 -203.74932912 720.98187859 -210.98879864 715.28122319 C-211.81379864 714.63282476 -212.63879864 713.98442632 -213.48879864 713.31637944 C-221.95939116 706.28512589 -227.95267187 697.02028263 -234.23879864 688.09372319 C-235.14299542 686.81042119 -235.14299542 686.81042119 -236.0654588 685.5011939 C-256.7757326 655.78682977 -260.39391138 617.54808492 -260.2092978 582.29374398 C-260.19476308 577.58706071 -260.23292368 572.88070484 -260.26335003 568.17413701 C-260.31429322 559.00891865 -260.31756491 549.84432271 -260.30171132 540.67899989 C-260.28945931 533.20697152 -260.2940648 525.73512349 -260.3099561 518.26310338 C-260.31220136 517.18919581 -260.31444663 516.11528825 -260.31675993 515.00883803 C-260.32135563 512.82532485 -260.32597068 510.64181171 -260.33060484 508.45829861 C-260.37155909 488.09221183 -260.35562706 467.72647304 -260.3210492 447.36039464 C-260.29130677 428.85671025 -260.33001786 410.35392823 -260.40185177 391.85038291 C-260.47556802 372.7132157 -260.50371486 353.57646544 -260.4838936 334.43915953 C-260.47353189 323.75031724 -260.47965745 313.06217254 -260.53264668 302.37343968 C-261.04934828 191.28956747 -261.04934828 191.28956747 -240.06301739 160.46847905 C-239.25066632 159.26057965 -239.25066632 159.26057965 -238.42190411 158.02827825 C-237.8458543 157.19264852 -237.2698045 156.35701879 -236.67629864 155.49606694 C-236.06673321 154.59610494 -235.45716778 153.69614293 -234.82913067 152.76890935 C-232.89116825 149.91273468 -230.94011537 147.06578584 -228.98879864 144.21872319 C-227.71061872 142.33712948 -226.43326854 140.45497184 -225.15676739 138.57223882 C-219.46903695 130.20047451 -213.72550473 121.87310055 -207.85989239 113.62497319 C-200.80580906 103.69979946 -194.12117378 93.53231356 -187.41873028 83.36789311 C-181.43087169 74.29513567 -175.37303123 65.28766178 -169.03176739 56.45700444 C-168.51042721 55.72744039 -167.98908703 54.99787633 -167.45194867 54.24620427 C-158.73901033 42.22773881 -148.24887613 33.88692817 -136.01809552 25.66989507 C-134.1453147 24.38832898 -132.32039186 23.0634925 -130.50442364 21.70309819 C-128.91887677 20.53520757 -128.91887677 20.53520757 -127.30129864 19.34372319 C-126.41055645 18.67469976 -125.51981427 18.00567632 -124.60207989 17.31637944 C-119.81068181 14.29294509 -114.24533666 12.7713705 -108.91632559 10.94459237 C-107.11706784 10.32536775 -105.32342124 9.68990532 -103.53026821 9.05321874 C-70.26971996 -2.18891152 -34.63557498 -0.08326868 0 0 Z " fill="#FD5602" transform="translate(394.9887986406684,123.71877680718899)"/>
<path d="M0 0 C1.87769231 0.00276538 1.87769231 0.00276538 3.79331779 0.00558662 C4.48923055 0.00387777 5.1851433 0.00216892 5.90214431 0.00040829 C8.24535632 -0.00289871 10.58828503 0.00813675 12.93147087 0.01904488 C14.60662136 0.01960873 16.28177233 0.01929294 17.95692253 0.01815987 C22.51455297 0.01758434 27.07207886 0.02937086 31.62968493 0.04330778 C36.38895613 0.05578196 41.14822954 0.05698302 45.90751457 0.0593586 C54.92437644 0.06558313 63.94119001 0.08200708 72.95803058 0.10205758 C83.22147831 0.12438634 93.4849283 0.13540239 103.74839425 0.14544845 C124.86527361 0.16637249 145.98210944 0.20156733 167.09895134 0.24609566 C167.10829704 1.09317085 167.11764275 1.94024605 167.12727165 2.81299019 C167.17147746 5.97803918 167.23317661 9.14214377 167.30647087 12.30664253 C167.33456757 13.6720773 167.35583811 15.03767129 167.36994743 16.40332222 C167.39153116 18.37463604 167.44030593 20.34559196 167.48957634 22.31640816 C167.51052361 23.49992867 167.53147087 24.68344917 167.5530529 25.90283394 C168.20754873 29.91118181 169.58006054 32.0914739 172.09895134 35.24609566 C175.14334857 37.27569381 175.72979353 37.49696048 179.14652824 37.50679207 C180.37875618 37.51741928 180.37875618 37.51741928 181.63587761 37.52826118 C182.98247459 37.52454506 182.98247459 37.52454506 184.35627556 37.52075386 C185.77866035 37.52842026 185.77866035 37.52842026 187.2297802 37.53624153 C190.37113024 37.55016573 193.51226156 37.54917848 196.65363884 37.54687691 C198.83455805 37.55076259 201.0154765 37.55509699 203.19639397 37.55986214 C207.77119714 37.56733066 212.34592315 37.5670287 216.92072868 37.56176949 C222.78423891 37.55597731 228.64743301 37.57289687 234.51089096 37.59611416 C239.01646078 37.61084501 243.52195439 37.61172401 248.02754402 37.60860443 C250.18930118 37.60911808 252.35106256 37.61436388 254.5127964 37.62441635 C257.53635251 37.6367492 260.55929186 37.63000751 263.58283806 37.61841011 C264.47652092 37.62605385 265.37020378 37.63369759 266.29096794 37.64157295 C270.99353747 37.6016935 274.41951411 37.50178728 278.09895134 34.24609566 C280.73458985 29.83894331 281.46221813 26.64348254 281.39192009 21.53515816 C281.38225212 20.29121284 281.37258415 19.04726753 281.36262321 17.76562691 C281.32491814 15.83783394 281.32491814 15.83783394 281.28645134 13.87109566 C281.26614861 11.908498 281.26614861 11.908498 281.24543571 9.90625191 C281.21017504 6.68577722 281.16088767 3.46614959 281.09895134 0.24609566 C303.21234525 0.15273778 325.32570676 0.08215842 347.43925762 0.03884697 C357.70650436 0.01820399 367.9736288 -0.0099497 378.24079704 -0.05566216 C387.18756 -0.09547685 396.1342344 -0.12132452 405.08108348 -0.13025832 C409.82031855 -0.13548219 414.55930026 -0.14779602 419.29845428 -0.17682457 C423.75619185 -0.20390899 428.21357088 -0.21236355 432.6713829 -0.20633507 C434.31011336 -0.20743844 435.9488554 -0.21543389 437.58751488 -0.23072624 C439.82023162 -0.25054606 442.05158392 -0.24587421 444.28433037 -0.23492241 C445.53520345 -0.23860958 446.78607653 -0.24229675 448.07485485 -0.24609566 C451.09895134 0.24609566 451.09895134 0.24609566 452.89986515 1.83865929 C456.47593756 9.01843241 456.38126046 15.68617367 456.3461895 23.58268929 C456.34860391 24.82604917 456.35101833 26.06940906 456.35350591 27.35044652 C456.3581594 30.79161158 456.35386355 34.23255284 456.34574163 37.67369735 C456.33914824 41.3917171 456.3441176 45.10972399 456.34762383 48.82774544 C456.35266654 56.12010958 456.34701778 63.41242835 456.33777352 70.70478686 C456.32734355 79.24477044 456.32746119 87.78474442 456.3279461 96.32473318 C456.32844716 111.6226675 456.31928615 126.92058098 456.30476189 142.21850777 C456.29078507 156.94800383 456.28358637 171.67748153 456.28425407 186.40698433 C456.28429403 187.30768692 456.28433399 188.20838951 456.28437515 189.13638612 C456.28441551 190.0357489 456.28445586 190.93511169 456.28449744 191.86172789 C456.28519626 208.73754631 456.27923227 225.61335711 456.27034422 242.48917302 C456.2677949 247.55909328 456.26640741 252.62901218 456.26601533 257.69893305 C456.26088208 320.33474806 456.26088208 320.33474806 455.82419455 349.96887457 C455.79249702 352.20771598 455.76535583 354.44662741 455.74318922 356.68558347 C455.71144117 359.70974799 455.66100019 362.73299725 455.60476494 365.75679207 C455.59890377 366.62572346 455.5930426 367.49465485 455.58700383 368.38991749 C455.45996505 373.71971854 454.58958052 377.50770938 452.09895134 382.24609566 C450.34504509 383.76953316 450.34504509 383.76953316 448.53645134 384.62109566 C446.71686552 385.4812635 444.89912494 386.34600886 443.09895134 387.24609566 C440.76341809 387.34639126 438.42491469 387.37896763 436.08723259 387.38311005 C435.35347831 387.38576187 434.61972404 387.3884137 433.86373478 387.39114588 C431.37962765 387.39886819 428.8955697 387.39939917 426.41145134 387.3999958 C424.62256302 387.40400852 422.83367562 387.40844642 421.04478931 387.41327536 C416.1089302 387.42526838 411.17308088 387.43089564 406.23721004 387.43545651 C400.92138763 387.44140242 395.60557699 387.45301491 390.2897625 387.46374702 C377.44060568 387.48829621 364.59144496 387.50290286 351.7422719 387.51580709 C348.11425088 387.51951751 344.48623025 387.52349087 340.85820961 387.52755976 C318.33945661 387.55279725 295.82070303 387.5748553 273.30193901 387.5872879 C268.083072 387.59021772 262.86420502 387.59317936 257.64533806 387.59619331 C256.34817474 387.59693936 255.05101142 387.59768541 253.71454012 387.59845407 C232.70193729 387.61110725 211.68941908 387.64432806 190.6768558 387.68599515 C169.113847 387.72840385 147.55088152 387.75198181 125.98783112 387.75720847 C113.87694562 387.76062404 101.76619231 387.77239629 89.65534782 387.8053112 C79.34055031 387.83329835 69.02591207 387.84431691 58.71107954 387.83311574 C53.44805698 387.82792551 48.18536801 387.83083981 42.9223938 387.85558128 C38.10202754 387.8780528 33.28223492 387.87735001 28.46185875 387.85837741 C26.72015612 387.85557446 24.97841476 387.86119236 23.23677444 387.87619035 C5.43224311 388.02010884 5.43224311 388.02010884 -1.90104866 382.24609566 C-8.87658767 374.22335846 -8.33340599 363.54603607 -8.28199959 353.50631905 C-8.28546116 352.026708 -8.29022907 350.54709954 -8.29618132 349.06749642 C-8.30865214 345.02370041 -8.30253894 340.98011806 -8.29322267 336.9363215 C-8.2864165 332.56682753 -8.29692108 328.19736952 -8.30516243 323.82788277 C-8.31848459 315.27732813 -8.31562898 306.72685261 -8.30692451 298.17629491 C-8.30014328 291.22674767 -8.29923314 284.27722256 -8.30249596 277.32767296 C-8.30295566 276.33775832 -8.30341535 275.34784368 -8.30388898 274.32793162 C-8.30484818 272.3168268 -8.30582082 270.30572199 -8.30680676 268.29461719 C-8.31535598 249.44845587 -8.3055334 230.60233837 -8.28940566 211.75618424 C-8.27599875 195.58889971 -8.27833455 179.4216798 -8.29216194 163.25439644 C-8.30821885 144.47155288 -8.31453642 125.68874768 -8.30532515 106.90589821 C-8.30436952 104.90289442 -8.3034264 102.89989063 -8.30249596 100.89688683 C-8.30203313 99.91141092 -8.3015703 98.92593502 -8.30109345 97.91059621 C-8.29850421 90.96919606 -8.30287306 84.02782026 -8.30993462 77.08642387 C-8.31835085 68.62764804 -8.31606667 60.16895572 -8.30009238 51.71018945 C-8.292212 47.39526435 -8.28911418 43.08047847 -8.29903984 38.76555443 C-8.30799179 34.81416768 -8.30304576 30.86304894 -8.28710718 26.91168644 C-8.28376155 25.48386052 -8.28544859 24.05601188 -8.29273455 22.62820064 C-8.32779411 15.18564464 -8.25038034 8.98085424 -4.90104866 2.24609566 C-2.90104866 0.24609566 -2.90104866 0.24609566 0 0 Z " fill="#FEDEBE" transform="translate(275.9010486602783,355.75390434265137)"/>
<path d="M0 0 C0.7321875 0.07347656 1.464375 0.14695312 2.21875 0.22265625 C7.45128835 1.8623044 10.29142102 5.71868382 13.125 10.1875 C13.81851563 11.25871094 14.51203125 12.32992188 15.2265625 13.43359375 C15.78005371 14.29186768 15.78005371 14.29186768 16.34472656 15.16748047 C18.34415026 18.23084095 20.42267906 21.23914616 22.5 24.25 C22.95197754 24.90645508 23.40395508 25.56291016 23.86962891 26.23925781 C28.75172894 33.32036805 33.67069049 40.37591168 38.58691406 47.43334961 C42.49498104 53.04596934 46.38560303 58.66973974 50.25 64.3125 C53.91203217 69.65846774 57.62732953 74.96374819 61.375 80.25 C67.86099721 89.40373525 74.18441503 98.66572386 80.5 107.9375 C87.7378172 118.55982917 95.02442463 129.14368155 102.40771484 139.66552734 C108.86926042 148.87804579 115.23737245 158.1532649 121.578125 167.44921875 C122.65611912 169.02873516 123.7342461 170.60816091 124.8125 172.1875 C125.34963623 172.97455322 125.88677246 173.76160645 126.44018555 174.57250977 C129.93817285 179.68670491 133.47783585 184.7696429 137.04516602 189.83569336 C139.37563805 193.14934785 141.69095862 196.4734142 144.00390625 199.79931641 C145.30037226 201.65219651 146.61550513 203.48955608 147.9375 205.32421875 C151.13671204 209.94888616 153.748696 213.92086405 153.07632732 219.72689629 C152.04425346 223.68559514 149.64607963 226.39376303 146.5 228.9375 C143.37614855 229.65856391 141.28320101 229.89443241 138.16479492 229.83544922 C137.3133597 229.84744984 136.46192448 229.85945045 135.58468819 229.87181473 C132.65334164 229.90389692 129.7244102 229.88505661 126.79296875 229.8671875 C124.61661525 229.8794817 122.44027693 229.89473125 120.26396179 229.91256714 C115.24256411 229.94555706 110.22160905 229.95427323 105.20013428 229.94567871 C99.04836369 229.93540135 92.89691219 229.94467507 86.74517822 229.96838379 C85.8997177 229.97163422 85.05425718 229.97488465 84.18317664 229.97823358 C82.43394699 229.98501707 80.68471744 229.99182613 78.93548799 229.99865961 C57.60891227 230.07929239 36.28255982 230.07864653 14.95586956 230.06607509 C7.8679544 230.06230427 0.7800533 230.06365388 -6.30786133 230.06787109 C-32.17229192 230.08264253 -58.03621682 230.0586135 -83.90044308 229.94841194 C-86.46974173 229.93762701 -89.03904264 229.92768102 -91.60834503 229.91783142 C-100.86899771 229.88071791 -110.12897123 229.82000065 -119.38916969 229.72042465 C-122.11381276 229.69162621 -124.83828703 229.67160543 -127.56305504 229.65967178 C-131.23370704 229.6396305 -134.90317369 229.59482829 -138.57348633 229.54248047 C-140.16941966 229.54122477 -140.16941966 229.54122477 -141.79759407 229.5399437 C-148.84512601 229.3991651 -148.84512601 229.3991651 -152.0969696 227.10671997 C-154.7012773 223.08020972 -155.78343076 219.62949576 -154.984375 214.859375 C-153.2867788 209.4349463 -149.67023378 205.05161444 -146.375 200.5 C-144.91968896 198.45207254 -143.46663331 196.40254081 -142.015625 194.3515625 C-140.89510742 192.77036621 -140.89510742 192.77036621 -139.75195312 191.15722656 C-136.11589426 185.95857692 -132.62148331 180.66809528 -129.125 175.375 C-124.15848767 167.87780355 -119.10753026 160.47246411 -113.8359375 153.1875 C-108.06119605 145.19545276 -102.57650449 136.99167254 -97.03125 128.83984375 C-89.81221289 118.22965411 -82.5449132 107.65627906 -75.20483398 97.12939453 C-71.40784427 91.68333875 -67.62707884 86.22708415 -63.875 80.75 C-59.83047689 74.84749081 -55.73567613 68.98160544 -51.625 63.125 C-46.98080929 56.50612402 -42.37305763 49.86429251 -37.8125 43.1875 C-37.27657227 42.4030249 -36.74064453 41.6185498 -36.18847656 40.81030273 C-34.13816525 37.80716654 -32.08906088 34.80322005 -30.04345703 31.796875 C-26.88700597 27.15971389 -23.71077172 22.53723966 -20.5 17.9375 C-20.01724609 17.2451123 -19.53449219 16.55272461 -19.03710938 15.83935547 C-17.57807725 13.75932638 -16.10427508 11.69066794 -14.625 9.625 C-13.96443604 8.68188965 -13.96443604 8.68188965 -13.29052734 7.71972656 C-9.71054446 2.77834173 -6.40104929 -0.80013116 0 0 Z " fill="#FFAF42" transform="translate(501.5,437.0625)"/>
<path d="M0 0 C15.54236811 -0.0934994 31.08471514 -0.16400664 46.62729836 -0.20724869 C53.84423863 -0.2278617 61.06100402 -0.25595789 68.27783203 -0.30175781 C74.5690607 -0.34166455 80.86016269 -0.36744199 87.15151441 -0.37635398 C90.4818931 -0.38156238 93.81182554 -0.39588378 97.14210892 -0.42292023 C100.8626994 -0.45192602 104.58253743 -0.45595699 108.30322266 -0.45410156 C109.40373962 -0.46848267 110.50425659 -0.48286377 111.63812256 -0.49768066 C117.75188324 -0.46465587 121.34962924 -0.0954946 126 4 C127.65234375 5.88085938 127.65234375 5.88085938 128.9375 7.84375 C129.4325 8.58496094 129.9275 9.32617188 130.4375 10.08984375 C131.2109375 11.28287109 131.2109375 11.28287109 132 12.5 C133.14461017 14.21956481 134.29048526 15.93828819 135.4375 17.65625 C136.02402344 18.54054688 136.61054687 19.42484375 137.21484375 20.3359375 C140.07548963 24.60499766 143.03893954 28.80027196 146 33 C150.8123455 39.86067024 155.61310895 46.72919309 160.375 53.625 C160.94089844 54.43710937 161.50679687 55.24921875 162.08984375 56.0859375 C162.86134766 57.20742188 162.86134766 57.20742188 163.6484375 58.3515625 C164.10395996 59.00979004 164.55948242 59.66801758 165.02880859 60.34619141 C166 62 166 62 166 64 C114.52 64 63.04 64 10 64 C7.69 50.47 5.38 36.94 3 23 C2.01 17.72 1.02 12.44 0 7 C0 4.69 0 2.38 0 0 Z " fill="#FEDEBE" transform="translate(541,258)"/>
<path d="M0 0 C0.98154053 -0.00137466 1.96308105 -0.00274933 2.97436523 -0.00416565 C4.0446698 -0.00057037 5.11497437 0.0030249 6.2177124 0.00672913 C7.34971069 0.0065831 8.48170898 0.00643707 9.64801025 0.00628662 C13.39229239 0.00698368 17.13652488 0.01476648 20.88079834 0.02259827 C23.4758298 0.02446318 26.07086162 0.02588674 28.66589355 0.02688599 C34.79981529 0.03031494 40.93371652 0.03819768 47.06763053 0.04823548 C54.05186846 0.05941645 61.03610724 0.06491207 68.02035189 0.06993091 C82.38530195 0.08038082 96.75023701 0.0979679 111.11517334 0.12025452 C110.16763451 13.71448222 110.16763451 13.71448222 109.02923584 20.31947327 C108.71841064 22.1509491 108.71841064 22.1509491 108.40130615 24.01942444 C108.07404541 25.89464783 108.07404541 25.89464783 107.74017334 27.80775452 C107.51403299 29.12707692 107.2884525 30.44649541 107.06341553 31.76600647 C106.62056428 34.3597896 106.17484572 36.95302123 105.72747803 39.54603577 C105.19000842 42.68341816 104.66635683 45.82240327 104.15423584 48.96400452 C104.01807861 49.79843079 103.88192139 50.63285706 103.74163818 51.49256897 C103.49842529 52.98828092 103.25647401 54.48419881 103.01605225 55.98036194 C102.55255585 58.80095841 102.02146326 61.40138477 101.11517334 64.12025452 C49.63517334 64.12025452 -1.84482666 64.12025452 -54.88482666 64.12025452 C-53.43943806 61.22947732 -52.07356397 58.80173616 -50.26763916 56.17103577 C-49.7492749 55.41411438 -49.23091064 54.65719299 -48.69683838 53.87733459 C-48.14012451 53.07062317 -47.58341064 52.26391174 -47.00982666 51.43275452 C-46.43119873 50.59059387 -45.8525708 49.74843323 -45.25640869 48.88075256 C-40.97830929 42.66859815 -36.65153031 36.49169467 -32.27496338 30.348526 C-29.78650432 26.84879604 -27.34257033 23.32920042 -24.97076416 19.74916077 C-13.55288846 2.56682606 -13.55288846 2.56682606 -7.08050919 0.56112003 C-4.66368619 0.07585228 -2.46523349 -0.002668 0 0 Z " fill="#FEDEBE" transform="translate(347.88482666015625,257.87974548339844)"/>
</svg>
